Coordinates
version=1
nRows=20
nColumns=34
inDegrees=yes

Units are S.I. units (second, meters, Newtons, ...)
If the header above contains a line with 'inDegrees', this indicates whether rotational values are in degrees (yes) or radians (no).

endheader
time	pelvis_tilt	pelvis_list	pelvis_rotation	pelvis_tx	pelvis_ty	pelvis_tz	hip_flexion_r	hip_adduction_r	hip_rotation_r	knee_angle_r	ankle_angle_r	subtalar_angle_r	mtp_angle_r	hip_flexion_l	hip_adduction_l	hip_rotation_l	knee_angle_l	ankle_angle_l	subtalar_angle_l	mtp_angle_l	lumbar_extension	lumbar_bending	lumbar_rotation	arm_flex_r	arm_add_r	arm_rot_r	elbow_flex_r	pro_sup_r	arm_flex_l	arm_add_l	arm_rot_l	elbow_flex_l	pro_sup_l
     13.28333330	      0.23214564	     -4.83667780	   -179.11859789	      0.02304272	      1.03590963	      0.16756988	     27.87259016	      0.54925828	     -1.97488608	     36.24832949	      4.40892208	     -9.62280487	      0.00000000	      7.25947931	      2.30069951	      0.55860748	    106.98502354	    -13.91907047	    -24.17652269	      0.00000000	    -15.40211203	     -4.37022711	     -9.67124557	    -21.21079909	    -17.58604672	     -0.95795713	    104.50747795	     98.96811466	      2.77058385	    -28.74841013	     22.71251757	     94.49677024	     79.76565575
     13.29166670	      0.71208607	     -4.53554365	   -179.42823965	      0.02465591	      1.03124032	      0.16630474	     28.07916626	      1.42836405	     -0.90520462	     39.07691511	      5.71034311	    -11.99626201	      0.00000000	     10.28097446	      1.58421605	      0.64835438	    109.95871168	    -13.10441146	    -23.31345403	      0.00000000	    -15.38089733	     -3.89089377	     -8.70657123	    -18.88779566	    -18.38986573	      0.15285518	    103.67768584	     99.44564908	     -0.04607605	    -29.04984185	     20.73961953	     92.62619399	     82.18432732
     13.30000000	      0.95370140	     -4.28822174	   -179.85066976	      0.02674561	      1.02754004	      0.16546060	     27.82901086	      2.27096038	      0.31666518	     41.52345264	      7.11819839	    -13.97121220	      0.00000000	     13.15860577	      1.01081126	      0.62683419	    112.42576854	    -12.13349301	    -22.42318596	      0.00000000	    -15.75251150	     -3.39192563	     -7.12383041	    -16.72610697	    -19.02028675	      0.94391917	    102.79733946	     99.66551278	     -1.83430138	    -28.74395233	     19.47807779	     90.02741094	     83.31162400
     13.30833330	      1.49849149	     -3.96338539	   -180.40153504	      0.02900496	      1.02396393	      0.16455981	     27.66274158	      3.17435489	      1.47298063	     43.49115792	      8.38371380	    -15.44081791	      0.00000000	     16.44577104	      0.32380832	      0.45747374	    114.44391710	    -11.21757912	    -21.84670754	      0.00000000	    -15.84003019	     -3.03314071	     -7.14413351	    -12.33089470	    -20.13974196	      4.23159650	    100.47494184	    100.33674199	     -5.89107648	    -28.59367521	     15.42780055	     88.77313773	     87.85264170
     13.31666670	      1.55681716	     -3.57303239	   -180.98253766	      0.03135373	      1.02155267	      0.16401897	     26.60333868	      4.02412838	      2.48139832	     44.84278719	      9.43770425	    -16.49575874	      0.00000000	     19.18199446	     -0.33733178	      0.36482286	    115.97901239	     -9.83389176	    -20.65057294	      0.00000000	    -16.57052821	     -2.34751338	     -5.12314948	     -9.87615185	    -20.41488259	      4.39230085	     99.68229259	    100.34926518	     -6.78461386	    -28.19789779	     14.74614897	     85.62865649	     88.18601946
     13.32500000	      2.13105308	     -3.16505275	   -181.35289861	      0.03333966	      1.01835936	      0.16367365	     25.88251937	      4.69915308	      3.10772578	     45.85642023	     10.31173695	    -17.64593876	      0.00000000	     22.60572132	     -0.91764061	      0.50985724	    117.22179325	     -8.11721009	    -19.26539442	      0.00000000	    -16.47156668	     -1.73330962	     -3.99945235	     -6.49435309	    -20.90237600	      6.19729473	     98.10801350	    100.42266141	     -8.64132563	    -27.98870941	     13.73541743	     83.26692822	     89.28390375
     13.33333330	      2.46826070	     -2.82506443	   -181.92981786	      0.03516979	      1.01589216	      0.16313851	     24.71234202	      5.27733686	      3.82185365	     46.52910025	     11.54935413	    -18.07068151	      0.00000000	     25.72228409	     -1.45546648	      0.44502174	    117.88393863	     -6.14745275	    -17.82636162	      0.00000000	    -16.69915791	     -1.19378563	     -2.64275463	     -3.25023097	    -21.26977491	      7.77890405	     96.91668987	    100.38028647	    -10.66232233	    -27.47498525	     12.03423554	     81.49654038	     90.08743152
     13.34166670	      2.81213677	     -2.61053171	   -182.50280677	      0.03705141	      1.01412225	      0.16282804	     23.44137008	      5.57978948	      4.36597575	     47.03412679	     12.96360629	    -18.11925551	      0.00000000	     28.79623808	     -1.83079478	      0.29200997	    117.99839579	     -4.31430997	    -16.63206143	      0.00000000	    -16.79919864	     -0.82337143	     -0.74928234	     -0.69033141	    -21.66840527	      8.78964531	     96.32633630	    100.30124143	    -12.23286523	    -26.97861101	     10.81600992	     80.54674100	     90.42008268
     13.35000000	      3.44635694	     -2.29748308	   -182.77409608	      0.03895507	      1.01288463	      0.16269480	     22.28198024	      5.76948224	      4.44665792	     47.12030106	     14.17541399	    -17.78083967	      0.00000000	     32.20209124	     -2.24082462	      0.36830286	    117.55705727	     -3.02840483	    -15.83482295	      0.00000000	    -16.38982774	     -0.34205042	     -0.56765314	      2.89779981	    -21.81969064	     11.27069082	     95.17978798	     99.89594119	    -15.81723840	    -26.46622206	      7.79266831	     80.60274073	     91.04609210
     13.35833330	      3.88667967	     -2.06882420	   -183.03822631	      0.04114168	      1.01339160	      0.16281247	     20.74039306	      5.75920943	      4.54111842	     46.83725855	     15.22497356	    -17.21387070	      0.00000000	     35.32716829	     -2.52076282	      0.32128347	    116.61163425	     -2.02727416	    -15.57825834	      0.00000000	    -16.07429101	      0.05342104	      1.46676734	      4.35785822	    -22.47228754	     11.59007558	     95.77349931	     99.76312140	    -17.17060559	    -26.27479571	      7.03490383	     81.02593777	     91.11019110
     13.36666670	      4.61412497	     -1.80419280	   -182.90662499	      0.04396506	      1.01524753	      0.16341708	     19.43032949	      5.55026577	      4.06497536	     46.31872420	     16.19099138	    -16.14908468	      0.00000000	     38.75297861	     -2.64746868	      0.43602484	    115.14582398	     -1.83927627	    -16.06541608	      0.00000000	    -15.29016564	      0.62888386	      2.79085496	      5.68468922	    -22.84901432	     11.84106609	     96.72075598	     99.57556183	    -19.01357694	    -26.10878521	      6.02896126	     81.89258690	     91.11294372
     13.37500000	      5.29638740	     -1.72527103	   -182.77351326	      0.04719332	      1.01953964	      0.16392358	     17.98657107	      5.10784810	      3.59050316	     45.49360203	     16.76137882	    -14.68163876	      0.00000000	     41.88586384	     -2.66090722	      0.22510930	    113.01035729	     -2.18760196	    -17.36279827	      0.00000000	    -14.54535011	      0.91198050	      3.05364314	      7.84570385	    -22.69652240	     12.82928660	     97.10909399	     98.93711330	    -21.98094567	    -25.40275755	      3.16847882	     83.50549458	     91.13340041
     13.38333330	      5.90421775	     -1.42380275	   -182.09879680	      0.04961517	      1.02646063	      0.16494719	     16.07915688	      4.73289860	      2.57243282	     43.85944105	     16.00891146	    -13.50532800	      0.00000000	     44.71231959	     -2.52385671	      0.32678098	    110.21601470	     -3.04600828	    -19.18810768	      0.00000000	    -13.69723855	      1.64946590	      3.95224976	      8.70736999	    -23.18561677	     12.99790025	     98.46950777	     98.82014259	    -23.23476529	    -25.44015934	      2.88409317	     84.69740337	     91.15260937
     13.39166670	      6.51894016	     -1.54304813	   -181.54152625	      0.05152376	      1.03547021	      0.16554344	     14.05540422	      3.95118072	      1.62403166	     41.84825489	     14.98116422	    -11.66682676	      0.00000000	     47.03669136	     -2.21016495	     -0.27492412	    106.46414746	     -4.48803012	    -21.68422153	      0.00000000	    -12.91224898	      1.77376636	      4.55221959	      9.34441779	    -23.15023552	     12.71297793	     99.91549922	     98.55813702	    -24.77960767	    -25.24122997	      1.74312825	     85.91667470	     91.09309665
     13.40000000	      6.99485240	     -1.65297738	   -180.61965461	      0.05186825	      1.04624065	      0.16643942	     11.51967902	      3.14226065	      0.26357074	     39.09346794	     12.74906144	    -10.10693264	      0.00000000	     48.85084460	     -1.63677462	     -0.81501986	    101.96582539	     -5.29873045	    -23.21692395	      0.00000000	    -12.10615153	      1.98956986	      4.90812672	      9.79385318	    -23.06122963	     12.44761207	    101.09974499	     98.43933660	    -25.77338279	    -25.14831561	      1.21357891	     86.60388520	     91.04536388
     13.40833330	      7.23751409	     -1.85640550	   -179.86441121	      0.05145316	      1.05725659	      0.16738815	      8.58268281	      2.32022008	     -1.00825608	     35.98071058	     10.14524381	     -8.16313984	      0.00000000	     49.98125117	     -1.07874993	     -1.82980190	     96.55424899	     -7.00114655	    -24.65126476	      0.00000000	    -11.68136740	      1.98372473	      5.24169442	     10.03206715	    -22.76008153	     12.00437744	    102.46503268	     98.31431486	    -26.80803302	    -24.75411431	      0.48838804	     87.18809189	     90.94845661
     13.41666670	      7.23386943	     -1.97238816	   -179.31723785	      0.04983000	      1.06760656	      0.16823312	      5.31628175	      1.69066908	     -2.21806272	     32.73013673	      6.88630360	     -6.19142354	      0.00000000	     50.62764606	     -0.65333236	     -2.93007395	     90.86613060	     -8.73627524	    -25.65199400	      0.00000000	    -11.46321822	      2.04834688	      5.84466513	     10.22365409	    -22.47528608	     11.71507018	    103.88719621	     98.24936943	    -27.72694796	    -24.38939411	     -0.23354043	     87.65703294	     90.83259652
     13.42500000	      7.75747616	     -1.88017841	   -179.23906154	      0.04688532	      1.07532405	      0.16863144	      2.65764401	      1.45009566	     -2.74100137	     29.53151574	      3.34499971	     -4.26061019	      0.00000000	     51.55470356	     -0.59503977	     -4.14119534	     84.96263851	     -9.47225887	    -25.41284316	      0.00000000	    -10.16150370	      2.34227726	      6.76314902	     10.12813753	    -22.30463034	     11.91239190	    104.76057790	     98.25790160	    -28.90104297	    -24.08485889	     -0.26910951	     87.81380118	     90.81405303
     13.43333330	      7.04235164	     -1.68286975	   -178.70451913	      0.04311443	      1.08328459	      0.17004145	     -1.59263337	      1.30614300	     -4.14095013	     25.86720673	     -0.59176214	     -2.64968024	      0.00000000	     50.81924716	      0.12040520	     -4.58414517	     78.84865250	    -10.76526980	    -26.50070306	      0.00000000	    -10.74556386	      2.55905492	      7.34750542	      9.78043869	    -22.44457837	     11.83204012	    107.05823553	     98.30190798	    -30.03610761	    -23.37871254	     -1.34978239	     88.44661686	     90.68019421
     13.44166670	      7.33142616	     -1.41914544	   -179.08700686	      0.03858399	      1.08849000	      0.16984258	     -4.16745258	      1.32623775	     -4.08892289	     23.28153627	     -3.90589584	     -0.95969877	      0.00000000	     50.95912154	     -0.01441439	     -5.21838202	     73.40391925	    -10.72251854	    -26.21854871	      0.00000000	     -9.46970506	      2.93597261	      8.50861345	      9.21911542	    -22.31357118	     12.37171555	    108.00007260	     98.34305501	    -31.58751549	    -23.14142769	     -1.51485065	     88.68427556	     90.66018994
